<mxfile host="app.diagrams.net" agent="Mozilla/5.0 (Windows NT 10.0; Win64; x64) AppleWebKit/537.36 (KHTML, like Gecko) Chrome/131.0.0.0 Safari/537.36" version="26.0.4">
  <diagram name="Page-1" id="58cdce13-f638-feb5-8d6f-7d28b1aa9fa0">
    <mxGraphModel dx="2774" dy="746" grid="1" gridSize="10" guides="1" tooltips="1" connect="1" arrows="1" fold="1" page="1" pageScale="1" pageWidth="1100" pageHeight="850" background="none" math="0" shadow="0">
      <root>
        <mxCell id="0" />
        <mxCell id="1" parent="0" />
        <mxCell id="382b91b5511bd0f7-1" value="" style="ellipse;html=1;shape=startState;fillColor=#000000;strokeColor=#ff0000;rounded=1;shadow=0;comic=0;labelBackgroundColor=none;fontFamily=Verdana;fontSize=12;fontColor=#000000;align=center;direction=south;" parent="1" vertex="1">
          <mxGeometry x="130" y="135" width="30" height="30" as="geometry" />
        </mxCell>
        <mxCell id="bhM9FhKEBRI8hsWFsNNW-2" value="" style="edgeStyle=orthogonalEdgeStyle;rounded=0;orthogonalLoop=1;jettySize=auto;html=1;" edge="1" parent="1" source="382b91b5511bd0f7-6" target="bhM9FhKEBRI8hsWFsNNW-1">
          <mxGeometry relative="1" as="geometry">
            <Array as="points">
              <mxPoint x="420" y="160" />
              <mxPoint x="420" y="160" />
            </Array>
          </mxGeometry>
        </mxCell>
        <mxCell id="bhM9FhKEBRI8hsWFsNNW-7" value="Ввод логина и пароля" style="edgeLabel;html=1;align=center;verticalAlign=middle;resizable=0;points=[];" vertex="1" connectable="0" parent="bhM9FhKEBRI8hsWFsNNW-2">
          <mxGeometry x="0.1692" y="-3" relative="1" as="geometry">
            <mxPoint x="-16" y="7" as="offset" />
          </mxGeometry>
        </mxCell>
        <mxCell id="382b91b5511bd0f7-6" value="Неавторизован" style="rounded=1;whiteSpace=wrap;html=1;arcSize=24;fillColor=#ffffc0;strokeColor=#ff0000;shadow=0;comic=0;labelBackgroundColor=none;fontFamily=Verdana;fontSize=12;fontColor=#000000;align=center;" parent="1" vertex="1">
          <mxGeometry x="240" y="120" width="120" height="60" as="geometry" />
        </mxCell>
        <mxCell id="2a3bc250acf0617d-8" value="frame" style="shape=umlFrame;whiteSpace=wrap;html=1;rounded=1;shadow=0;comic=0;labelBackgroundColor=none;strokeWidth=1;fontFamily=Verdana;fontSize=12;align=center;" parent="1" vertex="1">
          <mxGeometry x="40" y="1070" width="1050" height="745" as="geometry" />
        </mxCell>
        <mxCell id="2a3bc250acf0617d-9" style="edgeStyle=orthogonalEdgeStyle;html=1;labelBackgroundColor=none;endArrow=open;endSize=8;strokeColor=#ff0000;fontFamily=Verdana;fontSize=12;align=left;" parent="1" source="382b91b5511bd0f7-1" target="382b91b5511bd0f7-6" edge="1">
          <mxGeometry relative="1" as="geometry">
            <Array as="points">
              <mxPoint x="220" y="150" />
              <mxPoint x="220" y="150" />
            </Array>
          </mxGeometry>
        </mxCell>
        <mxCell id="bhM9FhKEBRI8hsWFsNNW-4" value="" style="edgeStyle=orthogonalEdgeStyle;rounded=0;orthogonalLoop=1;jettySize=auto;html=1;" edge="1" parent="1" source="bhM9FhKEBRI8hsWFsNNW-1" target="bhM9FhKEBRI8hsWFsNNW-3">
          <mxGeometry relative="1" as="geometry" />
        </mxCell>
        <mxCell id="bhM9FhKEBRI8hsWFsNNW-8" value="Успешная аутентификация&amp;nbsp;" style="edgeLabel;html=1;align=center;verticalAlign=middle;resizable=0;points=[];" vertex="1" connectable="0" parent="bhM9FhKEBRI8hsWFsNNW-4">
          <mxGeometry x="-0.14" relative="1" as="geometry">
            <mxPoint x="13" y="-15" as="offset" />
          </mxGeometry>
        </mxCell>
        <mxCell id="bhM9FhKEBRI8hsWFsNNW-5" style="edgeStyle=orthogonalEdgeStyle;rounded=0;orthogonalLoop=1;jettySize=auto;html=1;" edge="1" parent="1" source="bhM9FhKEBRI8hsWFsNNW-1" target="382b91b5511bd0f7-6">
          <mxGeometry relative="1" as="geometry">
            <Array as="points">
              <mxPoint x="380" y="140" />
              <mxPoint x="380" y="140" />
            </Array>
          </mxGeometry>
        </mxCell>
        <mxCell id="bhM9FhKEBRI8hsWFsNNW-6" value="Неверные данные" style="edgeLabel;html=1;align=center;verticalAlign=middle;resizable=0;points=[];" vertex="1" connectable="0" parent="bhM9FhKEBRI8hsWFsNNW-5">
          <mxGeometry x="-0.1" y="-1" relative="1" as="geometry">
            <mxPoint x="-11" y="-19" as="offset" />
          </mxGeometry>
        </mxCell>
        <mxCell id="bhM9FhKEBRI8hsWFsNNW-1" value="Авторизация" style="rounded=1;whiteSpace=wrap;html=1;arcSize=24;fillColor=#ffffc0;strokeColor=#ff0000;shadow=0;comic=0;labelBackgroundColor=none;fontFamily=Verdana;fontSize=12;fontColor=#000000;align=center;" vertex="1" parent="1">
          <mxGeometry x="490" y="120" width="120" height="60" as="geometry" />
        </mxCell>
        <mxCell id="bhM9FhKEBRI8hsWFsNNW-10" value="" style="edgeStyle=orthogonalEdgeStyle;rounded=0;orthogonalLoop=1;jettySize=auto;html=1;" edge="1" parent="1" source="bhM9FhKEBRI8hsWFsNNW-3" target="bhM9FhKEBRI8hsWFsNNW-9">
          <mxGeometry relative="1" as="geometry">
            <Array as="points">
              <mxPoint x="830" y="230" />
              <mxPoint x="120" y="230" />
            </Array>
          </mxGeometry>
        </mxCell>
        <mxCell id="bhM9FhKEBRI8hsWFsNNW-20" value="&lt;pre style=&quot;box-sizing: border-box; border: none; margin-top: var(--spacing-sm); color: rgb(31, 41, 55); background: var(--code-background-fill); font-family: var(--font-mono); font-size: var(--text-sm); text-align: left; word-break: normal; overflow-wrap: normal; line-height: 1.5; tab-size: 2; hyphens: none; overflow: auto; position: relative; box-shadow: none; padding: var(--spacing-lg) var(--spacing-xl); text-shadow: none; border-radius: var(--radius-sm); margin-bottom: 0px !important;&quot;&gt;&lt;code style=&quot;box-sizing: border-box; border-width: 0px; border-style: solid; color: var(--body-text-color); background: none; font-family: var(--font-mono); font-size: var(--text-sm); word-spacing: normal; word-break: normal; overflow-wrap: normal; line-height: 1.5; tab-size: 2; hyphens: none; margin-bottom: 0px !important;&quot; class=&quot;language-mermaid&quot;&gt;Переход на страницу &lt;/code&gt;&lt;/pre&gt;&lt;pre style=&quot;box-sizing: border-box; border: none; margin-top: var(--spacing-sm); color: rgb(31, 41, 55); background: var(--code-background-fill); font-family: var(--font-mono); font-size: var(--text-sm); text-align: left; word-break: normal; overflow-wrap: normal; line-height: 1.5; tab-size: 2; hyphens: none; overflow: auto; position: relative; box-shadow: none; padding: var(--spacing-lg) var(--spacing-xl); text-shadow: none; border-radius: var(--radius-sm); margin-bottom: 0px !important;&quot;&gt;&lt;code style=&quot;box-sizing: border-box; border-width: 0px; border-style: solid; color: var(--body-text-color); background: none; font-family: var(--font-mono); font-size: var(--text-sm); word-spacing: normal; word-break: normal; overflow-wrap: normal; line-height: 1.5; tab-size: 2; hyphens: none; margin-bottom: 0px !important;&quot; class=&quot;language-mermaid&quot;&gt;просмотра объявлений&lt;/code&gt;&lt;/pre&gt;" style="edgeLabel;html=1;align=center;verticalAlign=middle;resizable=0;points=[];" vertex="1" connectable="0" parent="bhM9FhKEBRI8hsWFsNNW-10">
          <mxGeometry x="0.7566" relative="1" as="geometry">
            <mxPoint x="-101" y="30" as="offset" />
          </mxGeometry>
        </mxCell>
        <mxCell id="bhM9FhKEBRI8hsWFsNNW-13" value="" style="edgeStyle=orthogonalEdgeStyle;rounded=0;orthogonalLoop=1;jettySize=auto;html=1;entryX=0.5;entryY=0;entryDx=0;entryDy=0;" edge="1" parent="1" target="bhM9FhKEBRI8hsWFsNNW-12">
          <mxGeometry relative="1" as="geometry">
            <mxPoint x="840" y="180" as="sourcePoint" />
            <mxPoint x="310" y="300" as="targetPoint" />
            <Array as="points">
              <mxPoint x="830" y="180" />
              <mxPoint x="830" y="230" />
              <mxPoint x="270" y="230" />
            </Array>
          </mxGeometry>
        </mxCell>
        <mxCell id="bhM9FhKEBRI8hsWFsNNW-71" value="&lt;pre style=&quot;box-sizing: border-box; border: none; margin-top: var(--spacing-sm); color: rgb(31, 41, 55); background: var(--code-background-fill); font-family: var(--font-mono); font-size: var(--text-sm); text-align: left; word-break: normal; overflow-wrap: normal; line-height: 1.5; tab-size: 2; hyphens: none; overflow: auto; position: relative; box-shadow: none; padding: var(--spacing-lg) var(--spacing-xl); text-shadow: none; border-radius: var(--radius-sm); margin-bottom: 0px !important;&quot;&gt;&lt;code style=&quot;box-sizing: border-box; border-width: 0px; border-style: solid; color: var(--body-text-color); background: none; font-family: var(--font-mono); font-size: var(--text-sm); word-spacing: normal; word-break: normal; overflow-wrap: normal; line-height: 1.5; tab-size: 2; hyphens: none; margin-bottom: 0px !important;&quot; class=&quot;language-mermaid&quot;&gt;Переход на &lt;/code&gt;&lt;/pre&gt;&lt;pre style=&quot;box-sizing: border-box; border: none; margin-top: var(--spacing-sm); color: rgb(31, 41, 55); background: var(--code-background-fill); font-family: var(--font-mono); font-size: var(--text-sm); text-align: left; word-break: normal; overflow-wrap: normal; line-height: 1.5; tab-size: 2; hyphens: none; overflow: auto; position: relative; box-shadow: none; padding: var(--spacing-lg) var(--spacing-xl); text-shadow: none; border-radius: var(--radius-sm); margin-bottom: 0px !important;&quot;&gt;&lt;code style=&quot;box-sizing: border-box; border-width: 0px; border-style: solid; color: var(--body-text-color); background: none; font-family: var(--font-mono); font-size: var(--text-sm); word-spacing: normal; word-break: normal; overflow-wrap: normal; line-height: 1.5; tab-size: 2; hyphens: none; margin-bottom: 0px !important;&quot; class=&quot;language-mermaid&quot;&gt;страницу поиска&lt;/code&gt;&lt;/pre&gt;" style="edgeLabel;html=1;align=center;verticalAlign=middle;resizable=0;points=[];" vertex="1" connectable="0" parent="bhM9FhKEBRI8hsWFsNNW-13">
          <mxGeometry x="0.8928" y="5" relative="1" as="geometry">
            <mxPoint x="-55" y="-3" as="offset" />
          </mxGeometry>
        </mxCell>
        <mxCell id="bhM9FhKEBRI8hsWFsNNW-15" value="" style="edgeStyle=orthogonalEdgeStyle;rounded=0;orthogonalLoop=1;jettySize=auto;html=1;" edge="1" parent="1" source="bhM9FhKEBRI8hsWFsNNW-3" target="bhM9FhKEBRI8hsWFsNNW-14">
          <mxGeometry relative="1" as="geometry">
            <Array as="points">
              <mxPoint x="830" y="230" />
              <mxPoint x="490" y="230" />
            </Array>
          </mxGeometry>
        </mxCell>
        <mxCell id="bhM9FhKEBRI8hsWFsNNW-73" value="Переход к блоку&lt;br&gt;&quot;Рекомендации&quot;" style="edgeLabel;html=1;align=center;verticalAlign=middle;resizable=0;points=[];" vertex="1" connectable="0" parent="bhM9FhKEBRI8hsWFsNNW-15">
          <mxGeometry x="0.8522" y="1" relative="1" as="geometry">
            <mxPoint x="-46" as="offset" />
          </mxGeometry>
        </mxCell>
        <mxCell id="bhM9FhKEBRI8hsWFsNNW-21" style="edgeStyle=orthogonalEdgeStyle;rounded=0;orthogonalLoop=1;jettySize=auto;html=1;" edge="1" parent="1" source="bhM9FhKEBRI8hsWFsNNW-3" target="bhM9FhKEBRI8hsWFsNNW-16">
          <mxGeometry relative="1" as="geometry">
            <Array as="points">
              <mxPoint x="830" y="230" />
              <mxPoint x="680" y="230" />
            </Array>
          </mxGeometry>
        </mxCell>
        <mxCell id="bhM9FhKEBRI8hsWFsNNW-74" value="Переход к списку&lt;br&gt;избранных объявлений" style="edgeLabel;html=1;align=center;verticalAlign=middle;resizable=0;points=[];" vertex="1" connectable="0" parent="bhM9FhKEBRI8hsWFsNNW-21">
          <mxGeometry x="0.6444" relative="1" as="geometry">
            <mxPoint x="-70" y="8" as="offset" />
          </mxGeometry>
        </mxCell>
        <mxCell id="bhM9FhKEBRI8hsWFsNNW-24" value="" style="edgeStyle=orthogonalEdgeStyle;rounded=0;orthogonalLoop=1;jettySize=auto;html=1;" edge="1" parent="1" source="bhM9FhKEBRI8hsWFsNNW-3" target="bhM9FhKEBRI8hsWFsNNW-23">
          <mxGeometry relative="1" as="geometry">
            <Array as="points">
              <mxPoint x="830" y="230" />
              <mxPoint x="1170" y="230" />
              <mxPoint x="1170" y="300" />
            </Array>
          </mxGeometry>
        </mxCell>
        <mxCell id="bhM9FhKEBRI8hsWFsNNW-72" value="&lt;pre style=&quot;box-sizing: border-box; border: none; margin-top: var(--spacing-sm); color: rgb(31, 41, 55); background: var(--code-background-fill); font-family: var(--font-mono); font-size: var(--text-sm); text-align: left; word-break: normal; overflow-wrap: normal; line-height: 1.5; tab-size: 2; hyphens: none; overflow: auto; position: relative; box-shadow: none; padding: var(--spacing-lg) var(--spacing-xl); text-shadow: none; border-radius: var(--radius-sm); margin-bottom: 0px !important;&quot;&gt;&lt;code style=&quot;box-sizing: border-box; border-width: 0px; border-style: solid; color: var(--body-text-color); background: none; font-family: var(--font-mono); font-size: var(--text-sm); word-spacing: normal; word-break: normal; overflow-wrap: normal; line-height: 1.5; tab-size: 2; hyphens: none; margin-bottom: 0px !important;&quot; class=&quot;language-mermaid&quot;&gt;Начало процесса&lt;/code&gt;&lt;/pre&gt;&lt;pre style=&quot;box-sizing: border-box; border: none; margin-top: var(--spacing-sm); color: rgb(31, 41, 55); background: var(--code-background-fill); font-family: var(--font-mono); font-size: var(--text-sm); text-align: left; word-break: normal; overflow-wrap: normal; line-height: 1.5; tab-size: 2; hyphens: none; overflow: auto; position: relative; box-shadow: none; padding: var(--spacing-lg) var(--spacing-xl); text-shadow: none; border-radius: var(--radius-sm); margin-bottom: 0px !important;&quot;&gt;&lt;code style=&quot;box-sizing: border-box; border-width: 0px; border-style: solid; color: var(--body-text-color); background: none; font-family: var(--font-mono); font-size: var(--text-sm); word-spacing: normal; word-break: normal; overflow-wrap: normal; line-height: 1.5; tab-size: 2; hyphens: none; margin-bottom: 0px !important;&quot; class=&quot;language-mermaid&quot;&gt; размещения объявления&lt;/code&gt;&lt;/pre&gt;" style="edgeLabel;html=1;align=center;verticalAlign=middle;resizable=0;points=[];" vertex="1" connectable="0" parent="bhM9FhKEBRI8hsWFsNNW-24">
          <mxGeometry x="0.7662" y="2" relative="1" as="geometry">
            <mxPoint x="78" y="-32" as="offset" />
          </mxGeometry>
        </mxCell>
        <mxCell id="bhM9FhKEBRI8hsWFsNNW-28" value="" style="edgeStyle=orthogonalEdgeStyle;rounded=0;orthogonalLoop=1;jettySize=auto;html=1;" edge="1" parent="1" source="bhM9FhKEBRI8hsWFsNNW-3" target="bhM9FhKEBRI8hsWFsNNW-27">
          <mxGeometry relative="1" as="geometry">
            <Array as="points">
              <mxPoint x="830" y="230" />
              <mxPoint x="1710" y="230" />
            </Array>
          </mxGeometry>
        </mxCell>
        <mxCell id="bhM9FhKEBRI8hsWFsNNW-107" value="Остановить отправку&amp;nbsp;&lt;div&gt;уведомлений&lt;/div&gt;" style="edgeLabel;html=1;align=center;verticalAlign=middle;resizable=0;points=[];" vertex="1" connectable="0" parent="bhM9FhKEBRI8hsWFsNNW-28">
          <mxGeometry x="0.9423" relative="1" as="geometry">
            <mxPoint x="60" y="8" as="offset" />
          </mxGeometry>
        </mxCell>
        <mxCell id="bhM9FhKEBRI8hsWFsNNW-30" value="" style="edgeStyle=orthogonalEdgeStyle;rounded=0;orthogonalLoop=1;jettySize=auto;html=1;entryX=0.5;entryY=0;entryDx=0;entryDy=0;" edge="1" parent="1" source="bhM9FhKEBRI8hsWFsNNW-3" target="bhM9FhKEBRI8hsWFsNNW-29">
          <mxGeometry relative="1" as="geometry">
            <Array as="points">
              <mxPoint x="830" y="230" />
              <mxPoint x="1870" y="230" />
            </Array>
          </mxGeometry>
        </mxCell>
        <mxCell id="bhM9FhKEBRI8hsWFsNNW-108" value="Перейти в раздел Аналитики" style="edgeLabel;html=1;align=center;verticalAlign=middle;resizable=0;points=[];" vertex="1" connectable="0" parent="bhM9FhKEBRI8hsWFsNNW-30">
          <mxGeometry x="0.9451" y="1" relative="1" as="geometry">
            <mxPoint x="79" y="11" as="offset" />
          </mxGeometry>
        </mxCell>
        <mxCell id="bhM9FhKEBRI8hsWFsNNW-31" style="edgeStyle=orthogonalEdgeStyle;rounded=0;orthogonalLoop=1;jettySize=auto;html=1;entryX=0.5;entryY=0;entryDx=0;entryDy=0;" edge="1" parent="1" source="bhM9FhKEBRI8hsWFsNNW-3" target="382b91b5511bd0f7-6">
          <mxGeometry relative="1" as="geometry">
            <Array as="points">
              <mxPoint x="830" y="100" />
              <mxPoint x="300" y="100" />
            </Array>
          </mxGeometry>
        </mxCell>
        <mxCell id="bhM9FhKEBRI8hsWFsNNW-118" value="&lt;pre style=&quot;box-sizing: border-box; border: none; margin-top: var(--spacing-sm); color: rgb(31, 41, 55); background: var(--code-background-fill); font-family: var(--font-mono); font-size: var(--text-sm); text-align: left; word-break: normal; overflow-wrap: normal; line-height: 1.5; tab-size: 2; hyphens: none; overflow: auto; position: relative; box-shadow: none; padding: var(--spacing-lg) var(--spacing-xl); text-shadow: none; border-radius: var(--radius-sm); margin-bottom: 0px !important;&quot;&gt;&lt;code style=&quot;box-sizing: border-box; border-width: 0px; border-style: solid; color: var(--body-text-color); background: none; font-family: var(--font-mono); font-size: var(--text-sm); word-spacing: normal; word-break: normal; overflow-wrap: normal; line-height: 1.5; tab-size: 2; hyphens: none; margin-bottom: 0px !important;&quot; class=&quot;language-mermaid&quot;&gt;Выход из системы&lt;/code&gt;&lt;/pre&gt;" style="edgeLabel;html=1;align=center;verticalAlign=middle;resizable=0;points=[];" vertex="1" connectable="0" parent="bhM9FhKEBRI8hsWFsNNW-31">
          <mxGeometry x="-0.3474" y="3" relative="1" as="geometry">
            <mxPoint y="-3" as="offset" />
          </mxGeometry>
        </mxCell>
        <mxCell id="bhM9FhKEBRI8hsWFsNNW-94" style="edgeStyle=orthogonalEdgeStyle;rounded=0;orthogonalLoop=1;jettySize=auto;html=1;" edge="1" parent="1" source="bhM9FhKEBRI8hsWFsNNW-3" target="bhM9FhKEBRI8hsWFsNNW-46">
          <mxGeometry relative="1" as="geometry">
            <Array as="points">
              <mxPoint x="830" y="230" />
              <mxPoint x="1530" y="230" />
            </Array>
          </mxGeometry>
        </mxCell>
        <mxCell id="bhM9FhKEBRI8hsWFsNNW-95" value="&lt;pre style=&quot;box-sizing: border-box; border: none; margin-top: var(--spacing-sm); color: rgb(31, 41, 55); background: var(--code-background-fill); font-family: var(--font-mono); font-size: var(--text-sm); text-align: left; word-break: normal; overflow-wrap: normal; line-height: 1.5; tab-size: 2; hyphens: none; overflow: auto; position: relative; box-shadow: none; padding: var(--spacing-lg) var(--spacing-xl); text-shadow: none; border-radius: var(--radius-sm); margin-bottom: 0px !important;&quot;&gt;&lt;code style=&quot;box-sizing: border-box; border-width: 0px; border-style: solid; color: var(--body-text-color); background: none; font-family: var(--font-mono); font-size: var(--text-sm); word-spacing: normal; word-break: normal; overflow-wrap: normal; line-height: 1.5; tab-size: 2; hyphens: none; margin-bottom: 0px !important;&quot; class=&quot;language-mermaid&quot;&gt;Инициирование&lt;/code&gt;&lt;/pre&gt;&lt;pre style=&quot;box-sizing: border-box; border: none; margin-top: var(--spacing-sm); color: rgb(31, 41, 55); background: var(--code-background-fill); font-family: var(--font-mono); font-size: var(--text-sm); text-align: left; word-break: normal; overflow-wrap: normal; line-height: 1.5; tab-size: 2; hyphens: none; overflow: auto; position: relative; box-shadow: none; padding: var(--spacing-lg) var(--spacing-xl); text-shadow: none; border-radius: var(--radius-sm); margin-bottom: 0px !important;&quot;&gt;&lt;code style=&quot;box-sizing: border-box; border-width: 0px; border-style: solid; color: var(--body-text-color); background: none; font-family: var(--font-mono); font-size: var(--text-sm); word-spacing: normal; word-break: normal; overflow-wrap: normal; line-height: 1.5; tab-size: 2; hyphens: none; margin-bottom: 0px !important;&quot; class=&quot;language-mermaid&quot;&gt; связи с продавцом&lt;/code&gt;&lt;/pre&gt;" style="edgeLabel;html=1;align=center;verticalAlign=middle;resizable=0;points=[];" vertex="1" connectable="0" parent="bhM9FhKEBRI8hsWFsNNW-94">
          <mxGeometry x="0.9468" y="-1" relative="1" as="geometry">
            <mxPoint x="61" as="offset" />
          </mxGeometry>
        </mxCell>
        <mxCell id="bhM9FhKEBRI8hsWFsNNW-3" value="Авторизован" style="rounded=1;whiteSpace=wrap;html=1;arcSize=24;fillColor=#ffffc0;strokeColor=#ff0000;shadow=0;comic=0;labelBackgroundColor=none;fontFamily=Verdana;fontSize=12;fontColor=#000000;align=center;" vertex="1" parent="1">
          <mxGeometry x="770" y="120" width="120" height="60" as="geometry" />
        </mxCell>
        <mxCell id="bhM9FhKEBRI8hsWFsNNW-33" value="" style="edgeStyle=orthogonalEdgeStyle;rounded=0;orthogonalLoop=1;jettySize=auto;html=1;" edge="1" parent="1" source="bhM9FhKEBRI8hsWFsNNW-9" target="bhM9FhKEBRI8hsWFsNNW-32">
          <mxGeometry relative="1" as="geometry" />
        </mxCell>
        <mxCell id="bhM9FhKEBRI8hsWFsNNW-93" value="Перейти на страницу&amp;nbsp;&lt;div&gt;детального описания объявления&lt;/div&gt;" style="edgeLabel;html=1;align=center;verticalAlign=middle;resizable=0;points=[];" vertex="1" connectable="0" parent="bhM9FhKEBRI8hsWFsNNW-33">
          <mxGeometry x="-0.15" y="2" relative="1" as="geometry">
            <mxPoint x="-92" y="-14" as="offset" />
          </mxGeometry>
        </mxCell>
        <mxCell id="bhM9FhKEBRI8hsWFsNNW-9" value="ПросмотрОбъявлений" style="rounded=1;whiteSpace=wrap;html=1;arcSize=24;fillColor=#ffffc0;strokeColor=#ff0000;shadow=0;comic=0;labelBackgroundColor=none;fontFamily=Verdana;fontSize=12;fontColor=#000000;align=center;" vertex="1" parent="1">
          <mxGeometry x="40" y="300" width="140" height="60" as="geometry" />
        </mxCell>
        <mxCell id="bhM9FhKEBRI8hsWFsNNW-12" value="&lt;pre style=&quot;box-sizing: border-box; border: none; margin-top: var(--spacing-sm); color: rgb(31, 41, 55); background: var(--code-background-fill); font-family: var(--font-mono); font-size: var(--text-sm); text-align: left; word-break: normal; overflow-wrap: normal; line-height: 1.5; tab-size: 2; hyphens: none; overflow: auto; position: relative; box-shadow: none; padding: var(--spacing-lg) var(--spacing-xl); text-shadow: none; border-radius: var(--radius-sm); margin-bottom: 0px !important;&quot;&gt;&lt;code style=&quot;box-sizing: border-box; border-width: 0px; border-style: solid; color: var(--body-text-color); background: none; font-family: var(--font-mono); font-size: var(--text-sm); word-spacing: normal; word-break: normal; overflow-wrap: normal; line-height: 1.5; tab-size: 2; hyphens: none; margin-bottom: 0px !important;&quot; class=&quot;language-mermaid&quot;&gt;ПоискНедвижимости &lt;/code&gt;&lt;/pre&gt;" style="rounded=1;whiteSpace=wrap;html=1;arcSize=24;fillColor=#ffffc0;strokeColor=#ff0000;shadow=0;comic=0;labelBackgroundColor=none;fontFamily=Verdana;fontSize=12;fontColor=#000000;align=center;" vertex="1" parent="1">
          <mxGeometry x="200" y="300" width="140" height="60" as="geometry" />
        </mxCell>
        <mxCell id="bhM9FhKEBRI8hsWFsNNW-14" value="&lt;pre style=&quot;box-sizing: border-box; border: none; margin-top: var(--spacing-sm); color: rgb(31, 41, 55); background: var(--code-background-fill); font-family: var(--font-mono); font-size: var(--text-sm); text-align: left; word-break: normal; overflow-wrap: normal; line-height: 1.5; tab-size: 2; hyphens: none; overflow: auto; position: relative; box-shadow: none; padding: var(--spacing-lg) var(--spacing-xl); text-shadow: none; border-radius: var(--radius-sm); margin-bottom: 0px !important;&quot;&gt;&lt;code style=&quot;box-sizing: border-box; border-width: 0px; border-style: solid; color: var(--body-text-color); background: none; font-family: var(--font-mono); font-size: var(--text-sm); word-spacing: normal; word-break: normal; overflow-wrap: normal; line-height: 1.5; tab-size: 2; hyphens: none; margin-bottom: 0px !important;&quot; class=&quot;language-mermaid&quot;&gt;Рекомендации&lt;/code&gt;&lt;/pre&gt;" style="rounded=1;whiteSpace=wrap;html=1;arcSize=24;fillColor=#ffffc0;strokeColor=#ff0000;shadow=0;comic=0;labelBackgroundColor=none;fontFamily=Verdana;fontSize=12;fontColor=#000000;align=center;" vertex="1" parent="1">
          <mxGeometry x="360" y="300" width="170" height="60" as="geometry" />
        </mxCell>
        <mxCell id="bhM9FhKEBRI8hsWFsNNW-36" style="edgeStyle=orthogonalEdgeStyle;rounded=0;orthogonalLoop=1;jettySize=auto;html=1;" edge="1" parent="1" source="bhM9FhKEBRI8hsWFsNNW-16" target="bhM9FhKEBRI8hsWFsNNW-32">
          <mxGeometry relative="1" as="geometry">
            <Array as="points">
              <mxPoint x="660" y="460" />
            </Array>
          </mxGeometry>
        </mxCell>
        <mxCell id="bhM9FhKEBRI8hsWFsNNW-90" value="Перейти на страницу детального описания объявления" style="edgeLabel;html=1;align=center;verticalAlign=middle;resizable=0;points=[];" vertex="1" connectable="0" parent="bhM9FhKEBRI8hsWFsNNW-36">
          <mxGeometry x="0.5661" relative="1" as="geometry">
            <mxPoint x="62" y="-5" as="offset" />
          </mxGeometry>
        </mxCell>
        <mxCell id="bhM9FhKEBRI8hsWFsNNW-16" value="&lt;pre style=&quot;box-sizing: border-box; border: none; margin-top: var(--spacing-sm); color: rgb(31, 41, 55); background: var(--code-background-fill); font-family: var(--font-mono); font-size: var(--text-sm); text-align: left; word-break: normal; overflow-wrap: normal; line-height: 1.5; tab-size: 2; hyphens: none; overflow: auto; position: relative; box-shadow: none; padding: var(--spacing-lg) var(--spacing-xl); text-shadow: none; border-radius: var(--radius-sm); margin-bottom: 0px !important;&quot;&gt;&lt;pre style=&quot;font-size: var(--text-sm); background: var(--code-background-fill); box-sizing: border-box; border: none; margin-top: var(--spacing-sm); color: rgb(31, 41, 55); font-family: var(--font-mono); word-break: normal; overflow-wrap: normal; line-height: 1.5; tab-size: 2; hyphens: none; overflow: auto; position: relative; box-shadow: none; padding: var(--spacing-lg) var(--spacing-xl); text-shadow: none; border-radius: var(--radius-sm); margin-bottom: 0px !important;&quot;&gt;&lt;code style=&quot;box-sizing: border-box; border-width: 0px; border-style: solid; color: var(--body-text-color); background: none; font-family: var(--font-mono); font-size: var(--text-sm); word-spacing: normal; word-break: normal; overflow-wrap: normal; line-height: 1.5; tab-size: 2; hyphens: none; margin-bottom: 0px !important;&quot; class=&quot;language-mermaid&quot;&gt;Избранное &lt;/code&gt;&lt;/pre&gt;&lt;/pre&gt;" style="rounded=1;whiteSpace=wrap;html=1;arcSize=24;fillColor=#ffffc0;strokeColor=#ff0000;shadow=0;comic=0;labelBackgroundColor=none;fontFamily=Verdana;fontSize=12;fontColor=#000000;align=center;" vertex="1" parent="1">
          <mxGeometry x="580" y="300" width="160" height="60" as="geometry" />
        </mxCell>
        <mxCell id="bhM9FhKEBRI8hsWFsNNW-18" value="" style="edgeStyle=orthogonalEdgeStyle;rounded=0;orthogonalLoop=1;jettySize=auto;html=1;" edge="1" parent="1" source="bhM9FhKEBRI8hsWFsNNW-3" target="bhM9FhKEBRI8hsWFsNNW-19">
          <mxGeometry relative="1" as="geometry">
            <mxPoint x="830" y="180" as="sourcePoint" />
            <mxPoint x="660" y="300" as="targetPoint" />
            <Array as="points">
              <mxPoint x="830" y="230" />
              <mxPoint x="880" y="230" />
            </Array>
          </mxGeometry>
        </mxCell>
        <mxCell id="bhM9FhKEBRI8hsWFsNNW-75" value="Переход на страницу&amp;nbsp;&lt;br&gt;Настройки уведомлений" style="edgeLabel;html=1;align=center;verticalAlign=middle;resizable=0;points=[];" vertex="1" connectable="0" parent="bhM9FhKEBRI8hsWFsNNW-18">
          <mxGeometry x="0.6" y="3" relative="1" as="geometry">
            <mxPoint x="-73" as="offset" />
          </mxGeometry>
        </mxCell>
        <mxCell id="bhM9FhKEBRI8hsWFsNNW-38" value="" style="edgeStyle=orthogonalEdgeStyle;rounded=0;orthogonalLoop=1;jettySize=auto;html=1;" edge="1" parent="1" source="bhM9FhKEBRI8hsWFsNNW-19" target="bhM9FhKEBRI8hsWFsNNW-37">
          <mxGeometry relative="1" as="geometry">
            <Array as="points">
              <mxPoint x="820" y="410" />
              <mxPoint x="820" y="410" />
            </Array>
          </mxGeometry>
        </mxCell>
        <mxCell id="bhM9FhKEBRI8hsWFsNNW-76" value="Перейти в раздел&lt;br&gt;&amp;nbsp;&quot;Новые объявления&quot;" style="edgeLabel;html=1;align=center;verticalAlign=middle;resizable=0;points=[];" vertex="1" connectable="0" parent="bhM9FhKEBRI8hsWFsNNW-38">
          <mxGeometry x="0.4957" y="-2" relative="1" as="geometry">
            <mxPoint x="-81" y="-2" as="offset" />
          </mxGeometry>
        </mxCell>
        <mxCell id="bhM9FhKEBRI8hsWFsNNW-43" style="edgeStyle=orthogonalEdgeStyle;rounded=0;orthogonalLoop=1;jettySize=auto;html=1;entryX=0;entryY=0.5;entryDx=0;entryDy=0;" edge="1" parent="1" source="bhM9FhKEBRI8hsWFsNNW-19" target="bhM9FhKEBRI8hsWFsNNW-40">
          <mxGeometry relative="1" as="geometry">
            <Array as="points">
              <mxPoint x="820" y="510" />
            </Array>
          </mxGeometry>
        </mxCell>
        <mxCell id="bhM9FhKEBRI8hsWFsNNW-77" value="Перейти в раздел&lt;br&gt;&amp;nbsp;&quot;Избранные объявления&quot;" style="edgeLabel;html=1;align=center;verticalAlign=middle;resizable=0;points=[];" vertex="1" connectable="0" parent="bhM9FhKEBRI8hsWFsNNW-43">
          <mxGeometry x="0.71" y="2" relative="1" as="geometry">
            <mxPoint x="-91" y="2" as="offset" />
          </mxGeometry>
        </mxCell>
        <mxCell id="bhM9FhKEBRI8hsWFsNNW-44" style="edgeStyle=orthogonalEdgeStyle;rounded=0;orthogonalLoop=1;jettySize=auto;html=1;entryX=0;entryY=0.5;entryDx=0;entryDy=0;" edge="1" parent="1" source="bhM9FhKEBRI8hsWFsNNW-19" target="bhM9FhKEBRI8hsWFsNNW-41">
          <mxGeometry relative="1" as="geometry">
            <Array as="points">
              <mxPoint x="820" y="600" />
            </Array>
          </mxGeometry>
        </mxCell>
        <mxCell id="bhM9FhKEBRI8hsWFsNNW-78" value="Выбор типа уведомлений" style="edgeLabel;html=1;align=center;verticalAlign=middle;resizable=0;points=[];" vertex="1" connectable="0" parent="bhM9FhKEBRI8hsWFsNNW-44">
          <mxGeometry x="0.869" y="-1" relative="1" as="geometry">
            <mxPoint x="-101" y="-1" as="offset" />
          </mxGeometry>
        </mxCell>
        <mxCell id="bhM9FhKEBRI8hsWFsNNW-45" style="edgeStyle=orthogonalEdgeStyle;rounded=0;orthogonalLoop=1;jettySize=auto;html=1;entryX=0;entryY=0.5;entryDx=0;entryDy=0;" edge="1" parent="1" source="bhM9FhKEBRI8hsWFsNNW-19" target="bhM9FhKEBRI8hsWFsNNW-42">
          <mxGeometry relative="1" as="geometry">
            <Array as="points">
              <mxPoint x="820" y="680" />
            </Array>
          </mxGeometry>
        </mxCell>
        <mxCell id="bhM9FhKEBRI8hsWFsNNW-79" value="Выбор частоты уведомлений" style="edgeLabel;html=1;align=center;verticalAlign=middle;resizable=0;points=[];" vertex="1" connectable="0" parent="bhM9FhKEBRI8hsWFsNNW-45">
          <mxGeometry x="0.8432" y="-5" relative="1" as="geometry">
            <mxPoint x="-101" y="-15" as="offset" />
          </mxGeometry>
        </mxCell>
        <mxCell id="bhM9FhKEBRI8hsWFsNNW-19" value="&lt;pre style=&quot;box-sizing: border-box; border: none; margin-top: var(--spacing-sm); color: rgb(31, 41, 55); background: var(--code-background-fill); font-family: var(--font-mono); font-size: var(--text-sm); text-align: left; word-break: normal; overflow-wrap: normal; line-height: 1.5; tab-size: 2; hyphens: none; overflow: auto; position: relative; box-shadow: none; padding: var(--spacing-lg) var(--spacing-xl); text-shadow: none; border-radius: var(--radius-sm); margin-bottom: 0px !important;&quot;&gt;&lt;code style=&quot;box-sizing: border-box; border-width: 0px; border-style: solid; color: var(--body-text-color); background: none; font-family: var(--font-mono); font-size: var(--text-sm); word-spacing: normal; word-break: normal; overflow-wrap: normal; line-height: 1.5; tab-size: 2; hyphens: none; margin-bottom: 0px !important;&quot; class=&quot;language-mermaid&quot;&gt;НастройкиУведомлений &lt;/code&gt;&lt;/pre&gt;" style="rounded=1;whiteSpace=wrap;html=1;arcSize=24;fillColor=#ffffc0;strokeColor=#ff0000;shadow=0;comic=0;labelBackgroundColor=none;fontFamily=Verdana;fontSize=12;fontColor=#000000;align=center;" vertex="1" parent="1">
          <mxGeometry x="790" y="300" width="190" height="60" as="geometry" />
        </mxCell>
        <mxCell id="bhM9FhKEBRI8hsWFsNNW-52" value="" style="edgeStyle=orthogonalEdgeStyle;rounded=0;orthogonalLoop=1;jettySize=auto;html=1;" edge="1" parent="1" source="bhM9FhKEBRI8hsWFsNNW-23" target="bhM9FhKEBRI8hsWFsNNW-48">
          <mxGeometry relative="1" as="geometry">
            <Array as="points">
              <mxPoint x="1305" y="400" />
            </Array>
          </mxGeometry>
        </mxCell>
        <mxCell id="bhM9FhKEBRI8hsWFsNNW-55" style="edgeStyle=orthogonalEdgeStyle;rounded=0;orthogonalLoop=1;jettySize=auto;html=1;entryX=0;entryY=0.5;entryDx=0;entryDy=0;" edge="1" parent="1" source="bhM9FhKEBRI8hsWFsNNW-23" target="bhM9FhKEBRI8hsWFsNNW-53">
          <mxGeometry relative="1" as="geometry" />
        </mxCell>
        <mxCell id="bhM9FhKEBRI8hsWFsNNW-56" style="edgeStyle=orthogonalEdgeStyle;rounded=0;orthogonalLoop=1;jettySize=auto;html=1;entryX=0;entryY=0.5;entryDx=0;entryDy=0;" edge="1" parent="1" source="bhM9FhKEBRI8hsWFsNNW-23" target="bhM9FhKEBRI8hsWFsNNW-54">
          <mxGeometry relative="1" as="geometry" />
        </mxCell>
        <mxCell id="bhM9FhKEBRI8hsWFsNNW-101" value="&lt;pre style=&quot;box-sizing: border-box; border: none; margin-top: var(--spacing-sm); color: rgb(31, 41, 55); background: var(--code-background-fill); font-family: var(--font-mono); font-size: var(--text-sm); text-align: left; word-break: normal; overflow-wrap: normal; line-height: 1.5; tab-size: 2; hyphens: none; overflow: auto; position: relative; box-shadow: none; padding: var(--spacing-lg) var(--spacing-xl); text-shadow: none; border-radius: var(--radius-sm); margin-bottom: 0px !important;&quot;&gt;&lt;code style=&quot;box-sizing: border-box; border-width: 0px; border-style: solid; color: var(--body-text-color); background: none; font-family: var(--font-mono); font-size: var(--text-sm); word-spacing: normal; word-break: normal; overflow-wrap: normal; line-height: 1.5; tab-size: 2; hyphens: none; margin-bottom: 0px !important;&quot; class=&quot;language-mermaid&quot;&gt;Отправка на модерацию&lt;/code&gt;&lt;/pre&gt;" style="edgeLabel;html=1;align=center;verticalAlign=middle;resizable=0;points=[];" vertex="1" connectable="0" parent="bhM9FhKEBRI8hsWFsNNW-56">
          <mxGeometry x="0.4441" y="-4" relative="1" as="geometry">
            <mxPoint x="69" y="-3" as="offset" />
          </mxGeometry>
        </mxCell>
        <mxCell id="bhM9FhKEBRI8hsWFsNNW-105" value="Удалить" style="edgeLabel;html=1;align=center;verticalAlign=middle;resizable=0;points=[];" vertex="1" connectable="0" parent="bhM9FhKEBRI8hsWFsNNW-56">
          <mxGeometry x="-0.2881" y="2" relative="1" as="geometry">
            <mxPoint x="-27" y="55" as="offset" />
          </mxGeometry>
        </mxCell>
        <mxCell id="bhM9FhKEBRI8hsWFsNNW-106" value="Редактировать" style="edgeLabel;html=1;align=center;verticalAlign=middle;resizable=0;points=[];" vertex="1" connectable="0" parent="bhM9FhKEBRI8hsWFsNNW-56">
          <mxGeometry x="-0.7424" y="3" relative="1" as="geometry">
            <mxPoint as="offset" />
          </mxGeometry>
        </mxCell>
        <mxCell id="bhM9FhKEBRI8hsWFsNNW-23" value="&lt;pre style=&quot;box-sizing: border-box; border: none; margin-top: var(--spacing-sm); color: rgb(31, 41, 55); background: var(--code-background-fill); font-family: var(--font-mono); font-size: var(--text-sm); text-align: left; word-break: normal; overflow-wrap: normal; line-height: 1.5; tab-size: 2; hyphens: none; overflow: auto; position: relative; box-shadow: none; padding: var(--spacing-lg) var(--spacing-xl); text-shadow: none; border-radius: var(--radius-sm); margin-bottom: 0px !important;&quot;&gt;&lt;code style=&quot;box-sizing: border-box; border-width: 0px; border-style: solid; color: var(--body-text-color); background: none; font-family: var(--font-mono); font-size: var(--text-sm); word-spacing: normal; word-break: normal; overflow-wrap: normal; line-height: 1.5; tab-size: 2; hyphens: none; margin-bottom: 0px !important;&quot; class=&quot;language-mermaid&quot;&gt;РазмещениеОбъявления &lt;/code&gt;&lt;/pre&gt;" style="whiteSpace=wrap;html=1;fontFamily=Verdana;fillColor=#ffffc0;strokeColor=#ff0000;fontColor=#000000;rounded=1;arcSize=24;shadow=0;comic=0;labelBackgroundColor=none;" vertex="1" parent="1">
          <mxGeometry x="1210" y="270" width="190" height="60" as="geometry" />
        </mxCell>
        <mxCell id="bhM9FhKEBRI8hsWFsNNW-27" value="&lt;pre style=&quot;box-sizing: border-box; border: none; margin-top: var(--spacing-sm); color: rgb(31, 41, 55); background: var(--code-background-fill); font-family: var(--font-mono); font-size: var(--text-sm); text-align: left; word-break: normal; overflow-wrap: normal; line-height: 1.5; tab-size: 2; hyphens: none; overflow: auto; position: relative; box-shadow: none; padding: var(--spacing-lg) var(--spacing-xl); text-shadow: none; border-radius: var(--radius-sm); margin-bottom: 0px !important;&quot;&gt;ПаузаУведомлений&lt;/pre&gt;" style="whiteSpace=wrap;html=1;fontFamily=Verdana;fillColor=#ffffc0;strokeColor=#ff0000;fontColor=#000000;rounded=1;arcSize=24;shadow=0;comic=0;labelBackgroundColor=none;" vertex="1" parent="1">
          <mxGeometry x="1640" y="270" width="140" height="60" as="geometry" />
        </mxCell>
        <mxCell id="bhM9FhKEBRI8hsWFsNNW-58" value="" style="edgeStyle=orthogonalEdgeStyle;rounded=0;orthogonalLoop=1;jettySize=auto;html=1;" edge="1" parent="1" source="bhM9FhKEBRI8hsWFsNNW-29" target="bhM9FhKEBRI8hsWFsNNW-57">
          <mxGeometry relative="1" as="geometry">
            <Array as="points">
              <mxPoint x="1870" y="380" />
              <mxPoint x="1870" y="380" />
            </Array>
          </mxGeometry>
        </mxCell>
        <mxCell id="bhM9FhKEBRI8hsWFsNNW-109" value="Смотреть статистику и графики" style="edgeLabel;html=1;align=center;verticalAlign=middle;resizable=0;points=[];" vertex="1" connectable="0" parent="bhM9FhKEBRI8hsWFsNNW-58">
          <mxGeometry x="0.8" y="3" relative="1" as="geometry">
            <mxPoint x="-98" y="-2" as="offset" />
          </mxGeometry>
        </mxCell>
        <mxCell id="bhM9FhKEBRI8hsWFsNNW-62" style="edgeStyle=orthogonalEdgeStyle;rounded=0;orthogonalLoop=1;jettySize=auto;html=1;entryX=0;entryY=0.5;entryDx=0;entryDy=0;" edge="1" parent="1" source="bhM9FhKEBRI8hsWFsNNW-29" target="bhM9FhKEBRI8hsWFsNNW-59">
          <mxGeometry relative="1" as="geometry" />
        </mxCell>
        <mxCell id="bhM9FhKEBRI8hsWFsNNW-110" value="Сравнивать параметры&amp;nbsp;&lt;div&gt;с похожими объявлениями&lt;/div&gt;" style="edgeLabel;html=1;align=center;verticalAlign=middle;resizable=0;points=[];" vertex="1" connectable="0" parent="bhM9FhKEBRI8hsWFsNNW-62">
          <mxGeometry x="0.85" y="-1" relative="1" as="geometry">
            <mxPoint x="-95" y="-1" as="offset" />
          </mxGeometry>
        </mxCell>
        <mxCell id="bhM9FhKEBRI8hsWFsNNW-63" style="edgeStyle=orthogonalEdgeStyle;rounded=0;orthogonalLoop=1;jettySize=auto;html=1;entryX=0;entryY=0.5;entryDx=0;entryDy=0;" edge="1" parent="1" source="bhM9FhKEBRI8hsWFsNNW-29" target="bhM9FhKEBRI8hsWFsNNW-60">
          <mxGeometry relative="1" as="geometry" />
        </mxCell>
        <mxCell id="bhM9FhKEBRI8hsWFsNNW-112" value="Добавить&lt;div&gt;&amp;nbsp;предложенные улучшения&lt;/div&gt;" style="edgeLabel;html=1;align=center;verticalAlign=middle;resizable=0;points=[];" vertex="1" connectable="0" parent="bhM9FhKEBRI8hsWFsNNW-63">
          <mxGeometry x="0.9143" y="-2" relative="1" as="geometry">
            <mxPoint x="-258" y="-212" as="offset" />
          </mxGeometry>
        </mxCell>
        <mxCell id="bhM9FhKEBRI8hsWFsNNW-64" style="edgeStyle=orthogonalEdgeStyle;rounded=0;orthogonalLoop=1;jettySize=auto;html=1;exitX=0.5;exitY=1;exitDx=0;exitDy=0;entryX=0;entryY=0.5;entryDx=0;entryDy=0;" edge="1" parent="1" source="bhM9FhKEBRI8hsWFsNNW-29" target="bhM9FhKEBRI8hsWFsNNW-61">
          <mxGeometry relative="1" as="geometry" />
        </mxCell>
        <mxCell id="bhM9FhKEBRI8hsWFsNNW-114" value="Запросить выгрузку отчета" style="edgeLabel;html=1;align=center;verticalAlign=middle;resizable=0;points=[];" vertex="1" connectable="0" parent="bhM9FhKEBRI8hsWFsNNW-64">
          <mxGeometry x="0.7667" y="1" relative="1" as="geometry">
            <mxPoint x="-71" y="-8" as="offset" />
          </mxGeometry>
        </mxCell>
        <mxCell id="bhM9FhKEBRI8hsWFsNNW-29" value="&lt;pre style=&quot;box-sizing: border-box; border: none; margin-top: var(--spacing-sm); color: rgb(31, 41, 55); background: var(--code-background-fill); font-family: var(--font-mono); font-size: var(--text-sm); text-align: left; word-break: normal; overflow-wrap: normal; line-height: 1.5; tab-size: 2; hyphens: none; overflow: auto; position: relative; box-shadow: none; padding: var(--spacing-lg) var(--spacing-xl); text-shadow: none; border-radius: var(--radius-sm); margin-bottom: 0px !important;&quot;&gt;&lt;code style=&quot;box-sizing: border-box; border-width: 0px; border-style: solid; color: var(--body-text-color); background: none; font-family: var(--font-mono); font-size: var(--text-sm); word-spacing: normal; word-break: normal; overflow-wrap: normal; line-height: 1.5; tab-size: 2; hyphens: none; margin-bottom: 0px !important;&quot; class=&quot;language-mermaid&quot;&gt;Аналитика&lt;/code&gt;&lt;/pre&gt;" style="whiteSpace=wrap;html=1;fontFamily=Verdana;fillColor=#ffffc0;strokeColor=#ff0000;fontColor=#000000;rounded=1;arcSize=24;shadow=0;comic=0;labelBackgroundColor=none;" vertex="1" parent="1">
          <mxGeometry x="1810" y="270" width="120" height="60" as="geometry" />
        </mxCell>
        <mxCell id="bhM9FhKEBRI8hsWFsNNW-32" value="ПросмотрДеталей" style="whiteSpace=wrap;html=1;fontFamily=Verdana;fillColor=#ffffc0;strokeColor=#ff0000;fontColor=#000000;rounded=1;arcSize=24;shadow=0;comic=0;labelBackgroundColor=none;" vertex="1" parent="1">
          <mxGeometry x="50" y="440" width="120" height="60" as="geometry" />
        </mxCell>
        <mxCell id="bhM9FhKEBRI8hsWFsNNW-34" style="edgeStyle=orthogonalEdgeStyle;rounded=0;orthogonalLoop=1;jettySize=auto;html=1;entryX=0.592;entryY=0.017;entryDx=0;entryDy=0;entryPerimeter=0;" edge="1" parent="1" source="bhM9FhKEBRI8hsWFsNNW-12" target="bhM9FhKEBRI8hsWFsNNW-32">
          <mxGeometry relative="1" as="geometry">
            <Array as="points">
              <mxPoint x="270" y="400" />
              <mxPoint x="121" y="400" />
            </Array>
          </mxGeometry>
        </mxCell>
        <mxCell id="bhM9FhKEBRI8hsWFsNNW-92" value="Перейти на страницу детального&lt;div&gt;&amp;nbsp;описания объявления&lt;/div&gt;" style="edgeLabel;html=1;align=center;verticalAlign=middle;resizable=0;points=[];" vertex="1" connectable="0" parent="bhM9FhKEBRI8hsWFsNNW-34">
          <mxGeometry x="0.1738" relative="1" as="geometry">
            <mxPoint x="185" y="-20" as="offset" />
          </mxGeometry>
        </mxCell>
        <mxCell id="bhM9FhKEBRI8hsWFsNNW-35" style="edgeStyle=orthogonalEdgeStyle;rounded=0;orthogonalLoop=1;jettySize=auto;html=1;entryX=0.75;entryY=0;entryDx=0;entryDy=0;entryPerimeter=0;" edge="1" parent="1" source="bhM9FhKEBRI8hsWFsNNW-14" target="bhM9FhKEBRI8hsWFsNNW-32">
          <mxGeometry relative="1" as="geometry">
            <Array as="points">
              <mxPoint x="495" y="420" />
              <mxPoint x="140" y="420" />
            </Array>
          </mxGeometry>
        </mxCell>
        <mxCell id="bhM9FhKEBRI8hsWFsNNW-91" value="Перейти на страницу детального описания объявления" style="edgeLabel;html=1;align=center;verticalAlign=middle;resizable=0;points=[];" vertex="1" connectable="0" parent="bhM9FhKEBRI8hsWFsNNW-35">
          <mxGeometry x="0.0391" y="2" relative="1" as="geometry">
            <mxPoint as="offset" />
          </mxGeometry>
        </mxCell>
        <mxCell id="bhM9FhKEBRI8hsWFsNNW-37" value="&lt;pre style=&quot;box-sizing: border-box; border: none; margin-top: var(--spacing-sm); color: rgb(31, 41, 55); background: var(--code-background-fill); font-family: var(--font-mono); font-size: var(--text-sm); text-align: left; word-break: normal; overflow-wrap: normal; line-height: 1.5; tab-size: 2; hyphens: none; overflow: auto; position: relative; box-shadow: none; padding: var(--spacing-lg) var(--spacing-xl); text-shadow: none; border-radius: var(--radius-sm); margin-bottom: 0px !important;&quot;&gt;&lt;code style=&quot;box-sizing: border-box; border-width: 0px; border-style: solid; color: var(--body-text-color); background: none; font-family: var(--font-mono); font-size: var(--text-sm); word-spacing: normal; word-break: normal; overflow-wrap: normal; line-height: 1.5; tab-size: 2; hyphens: none; margin-bottom: 0px !important;&quot; class=&quot;language-mermaid&quot;&gt;НастройкаНовыхОбъявлений&lt;/code&gt;&lt;/pre&gt;" style="rounded=1;whiteSpace=wrap;html=1;arcSize=24;fillColor=#ffffc0;strokeColor=#ff0000;shadow=0;comic=0;labelBackgroundColor=none;fontFamily=Verdana;fontSize=12;fontColor=#000000;align=center;" vertex="1" parent="1">
          <mxGeometry x="870" y="395" width="190" height="60" as="geometry" />
        </mxCell>
        <mxCell id="bhM9FhKEBRI8hsWFsNNW-82" style="edgeStyle=orthogonalEdgeStyle;rounded=0;orthogonalLoop=1;jettySize=auto;html=1;entryX=0.75;entryY=1;entryDx=0;entryDy=0;" edge="1" parent="1" source="bhM9FhKEBRI8hsWFsNNW-40" target="bhM9FhKEBRI8hsWFsNNW-19">
          <mxGeometry relative="1" as="geometry">
            <Array as="points">
              <mxPoint x="1110" y="510" />
              <mxPoint x="1110" y="390" />
              <mxPoint x="933" y="390" />
            </Array>
          </mxGeometry>
        </mxCell>
        <mxCell id="bhM9FhKEBRI8hsWFsNNW-89" value="Сохранить" style="edgeLabel;html=1;align=center;verticalAlign=middle;resizable=0;points=[];" vertex="1" connectable="0" parent="bhM9FhKEBRI8hsWFsNNW-82">
          <mxGeometry x="0.6748" y="-3" relative="1" as="geometry">
            <mxPoint x="6" as="offset" />
          </mxGeometry>
        </mxCell>
        <mxCell id="bhM9FhKEBRI8hsWFsNNW-40" value="&lt;pre style=&quot;box-sizing: border-box; border: none; margin-top: var(--spacing-sm); color: rgb(31, 41, 55); background: var(--code-background-fill); font-family: var(--font-mono); font-size: var(--text-sm); text-align: left; word-break: normal; overflow-wrap: normal; line-height: 1.5; tab-size: 2; hyphens: none; overflow: auto; position: relative; box-shadow: none; padding: var(--spacing-lg) var(--spacing-xl); text-shadow: none; border-radius: var(--radius-sm); margin-bottom: 0px !important;&quot;&gt;&lt;code style=&quot;box-sizing: border-box; border-width: 0px; border-style: solid; color: var(--body-text-color); background: none; font-family: var(--font-mono); font-size: var(--text-sm); word-spacing: normal; word-break: normal; overflow-wrap: normal; line-height: 1.5; tab-size: 2; hyphens: none; margin-bottom: 0px !important;&quot; class=&quot;language-mermaid&quot;&gt;НастройкаИзмененийВИзбранном&lt;/code&gt;&lt;/pre&gt;" style="rounded=1;whiteSpace=wrap;html=1;arcSize=24;fillColor=#ffffc0;strokeColor=#ff0000;shadow=0;comic=0;labelBackgroundColor=none;fontFamily=Verdana;fontSize=12;fontColor=#000000;align=center;" vertex="1" parent="1">
          <mxGeometry x="870" y="480" width="220" height="60" as="geometry" />
        </mxCell>
        <mxCell id="bhM9FhKEBRI8hsWFsNNW-41" value="&lt;pre style=&quot;box-sizing: border-box; border: none; margin-top: var(--spacing-sm); color: rgb(31, 41, 55); background: var(--code-background-fill); font-family: var(--font-mono); font-size: var(--text-sm); text-align: left; word-break: normal; overflow-wrap: normal; line-height: 1.5; tab-size: 2; hyphens: none; overflow: auto; position: relative; box-shadow: none; padding: var(--spacing-lg) var(--spacing-xl); text-shadow: none; border-radius: var(--radius-sm); margin-bottom: 0px !important;&quot;&gt;&lt;code style=&quot;box-sizing: border-box; border-width: 0px; border-style: solid; color: var(--body-text-color); background: none; font-family: var(--font-mono); font-size: var(--text-sm); word-spacing: normal; word-break: normal; overflow-wrap: normal; line-height: 1.5; tab-size: 2; hyphens: none; margin-bottom: 0px !important;&quot; class=&quot;language-mermaid&quot;&gt;НастройкаТипаУведомлений&lt;/code&gt;&lt;/pre&gt;" style="rounded=1;whiteSpace=wrap;html=1;arcSize=24;fillColor=#ffffc0;strokeColor=#ff0000;shadow=0;comic=0;labelBackgroundColor=none;fontFamily=Verdana;fontSize=12;fontColor=#000000;align=center;" vertex="1" parent="1">
          <mxGeometry x="870" y="570" width="190" height="60" as="geometry" />
        </mxCell>
        <mxCell id="bhM9FhKEBRI8hsWFsNNW-42" value="&lt;pre style=&quot;box-sizing: border-box; border: none; margin-top: var(--spacing-sm); color: rgb(31, 41, 55); background: var(--code-background-fill); font-family: var(--font-mono); font-size: var(--text-sm); text-align: left; word-break: normal; overflow-wrap: normal; line-height: 1.5; tab-size: 2; hyphens: none; overflow: auto; position: relative; box-shadow: none; padding: var(--spacing-lg) var(--spacing-xl); text-shadow: none; border-radius: var(--radius-sm); margin-bottom: 0px !important;&quot;&gt;&lt;code style=&quot;box-sizing: border-box; border-width: 0px; border-style: solid; color: var(--body-text-color); background: none; font-family: var(--font-mono); font-size: var(--text-sm); word-spacing: normal; word-break: normal; overflow-wrap: normal; line-height: 1.5; tab-size: 2; hyphens: none; margin-bottom: 0px !important;&quot; class=&quot;language-mermaid&quot;&gt;НастройкаЧастотыУведомлений&lt;/code&gt;&lt;/pre&gt;" style="rounded=1;whiteSpace=wrap;html=1;arcSize=24;fillColor=#ffffc0;strokeColor=#ff0000;shadow=0;comic=0;labelBackgroundColor=none;fontFamily=Verdana;fontSize=12;fontColor=#000000;align=center;" vertex="1" parent="1">
          <mxGeometry x="870" y="650" width="210" height="60" as="geometry" />
        </mxCell>
        <mxCell id="bhM9FhKEBRI8hsWFsNNW-46" value="&lt;pre style=&quot;box-sizing: border-box; border: none; margin-top: var(--spacing-sm); color: rgb(31, 41, 55); background: var(--code-background-fill); font-family: var(--font-mono); font-size: var(--text-sm); text-align: left; word-break: normal; overflow-wrap: normal; line-height: 1.5; tab-size: 2; hyphens: none; overflow: auto; position: relative; box-shadow: none; padding: var(--spacing-lg) var(--spacing-xl); text-shadow: none; border-radius: var(--radius-sm); margin-bottom: 0px !important;&quot;&gt;&lt;code style=&quot;box-sizing: border-box; border-width: 0px; border-style: solid; color: var(--body-text-color); background: none; font-family: var(--font-mono); font-size: var(--text-sm); word-spacing: normal; word-break: normal; overflow-wrap: normal; line-height: 1.5; tab-size: 2; hyphens: none; margin-bottom: 0px !important;&quot; class=&quot;language-mermaid&quot;&gt;СвязьСПродавцом&lt;/code&gt;&lt;/pre&gt;" style="whiteSpace=wrap;html=1;fontFamily=Verdana;fillColor=#ffffc0;strokeColor=#ff0000;fontColor=#000000;rounded=1;arcSize=24;shadow=0;comic=0;labelBackgroundColor=none;" vertex="1" parent="1">
          <mxGeometry x="1470" y="270" width="120" height="60" as="geometry" />
        </mxCell>
        <mxCell id="bhM9FhKEBRI8hsWFsNNW-48" value="&lt;pre style=&quot;box-sizing: border-box; border: none; margin-top: var(--spacing-sm); color: rgb(31, 41, 55); background: var(--code-background-fill); font-family: var(--font-mono); font-size: var(--text-sm); text-align: left; word-break: normal; overflow-wrap: normal; line-height: 1.5; tab-size: 2; hyphens: none; overflow: auto; position: relative; box-shadow: none; padding: var(--spacing-lg) var(--spacing-xl); text-shadow: none; border-radius: var(--radius-sm); margin-bottom: 0px !important;&quot;&gt;&lt;code style=&quot;box-sizing: border-box; border-width: 0px; border-style: solid; color: var(--body-text-color); background: none; font-family: var(--font-mono); font-size: var(--text-sm); word-spacing: normal; word-break: normal; overflow-wrap: normal; line-height: 1.5; tab-size: 2; hyphens: none; margin-bottom: 0px !important;&quot; class=&quot;language-mermaid&quot;&gt;РедактированиеОбъявления&lt;/code&gt;&lt;/pre&gt;" style="whiteSpace=wrap;html=1;fontFamily=Verdana;fillColor=#ffffc0;strokeColor=#ff0000;fontColor=#000000;rounded=1;arcSize=24;shadow=0;comic=0;labelBackgroundColor=none;" vertex="1" parent="1">
          <mxGeometry x="1340" y="370" width="190" height="60" as="geometry" />
        </mxCell>
        <mxCell id="bhM9FhKEBRI8hsWFsNNW-53" value="&lt;pre style=&quot;box-sizing: border-box; border: none; margin-top: var(--spacing-sm); color: rgb(31, 41, 55); background: var(--code-background-fill); font-family: var(--font-mono); font-size: var(--text-sm); text-align: left; word-break: normal; overflow-wrap: normal; line-height: 1.5; tab-size: 2; hyphens: none; overflow: auto; position: relative; box-shadow: none; padding: var(--spacing-lg) var(--spacing-xl); text-shadow: none; border-radius: var(--radius-sm); margin-bottom: 0px !important;&quot;&gt;&lt;code style=&quot;box-sizing: border-box; border-width: 0px; border-style: solid; color: var(--body-text-color); background: none; font-family: var(--font-mono); font-size: var(--text-sm); word-spacing: normal; word-break: normal; overflow-wrap: normal; line-height: 1.5; tab-size: 2; hyphens: none; margin-bottom: 0px !important;&quot; class=&quot;language-mermaid&quot;&gt;УдалениеОбъявления&lt;/code&gt;&lt;/pre&gt;" style="whiteSpace=wrap;html=1;fontFamily=Verdana;fillColor=#ffffc0;strokeColor=#ff0000;fontColor=#000000;rounded=1;arcSize=24;shadow=0;comic=0;labelBackgroundColor=none;" vertex="1" parent="1">
          <mxGeometry x="1340" y="460" width="190" height="60" as="geometry" />
        </mxCell>
        <mxCell id="bhM9FhKEBRI8hsWFsNNW-66" value="" style="edgeStyle=orthogonalEdgeStyle;rounded=0;orthogonalLoop=1;jettySize=auto;html=1;" edge="1" parent="1" source="bhM9FhKEBRI8hsWFsNNW-54" target="bhM9FhKEBRI8hsWFsNNW-65">
          <mxGeometry relative="1" as="geometry" />
        </mxCell>
        <mxCell id="bhM9FhKEBRI8hsWFsNNW-67" value="" style="edgeStyle=orthogonalEdgeStyle;rounded=0;orthogonalLoop=1;jettySize=auto;html=1;" edge="1" parent="1" source="bhM9FhKEBRI8hsWFsNNW-54" target="bhM9FhKEBRI8hsWFsNNW-65">
          <mxGeometry relative="1" as="geometry" />
        </mxCell>
        <mxCell id="bhM9FhKEBRI8hsWFsNNW-103" value="Принять&lt;div&gt;&amp;nbsp;модерацию&lt;/div&gt;" style="edgeLabel;html=1;align=center;verticalAlign=middle;resizable=0;points=[];" vertex="1" connectable="0" parent="bhM9FhKEBRI8hsWFsNNW-67">
          <mxGeometry x="0.6" y="2" relative="1" as="geometry">
            <mxPoint x="-18" y="-18" as="offset" />
          </mxGeometry>
        </mxCell>
        <mxCell id="bhM9FhKEBRI8hsWFsNNW-69" value="" style="edgeStyle=orthogonalEdgeStyle;rounded=0;orthogonalLoop=1;jettySize=auto;html=1;" edge="1" parent="1" source="bhM9FhKEBRI8hsWFsNNW-54" target="bhM9FhKEBRI8hsWFsNNW-68">
          <mxGeometry relative="1" as="geometry">
            <Array as="points">
              <mxPoint x="1590" y="590" />
              <mxPoint x="1590" y="690" />
            </Array>
          </mxGeometry>
        </mxCell>
        <mxCell id="bhM9FhKEBRI8hsWFsNNW-104" value="Отклонить&amp;nbsp;&lt;div&gt;модерацию&lt;/div&gt;" style="edgeLabel;html=1;align=center;verticalAlign=middle;resizable=0;points=[];" vertex="1" connectable="0" parent="bhM9FhKEBRI8hsWFsNNW-69">
          <mxGeometry x="0.2757" y="1" relative="1" as="geometry">
            <mxPoint x="-41" y="12" as="offset" />
          </mxGeometry>
        </mxCell>
        <mxCell id="bhM9FhKEBRI8hsWFsNNW-98" style="edgeStyle=orthogonalEdgeStyle;rounded=0;orthogonalLoop=1;jettySize=auto;html=1;" edge="1" parent="1" source="bhM9FhKEBRI8hsWFsNNW-54" target="bhM9FhKEBRI8hsWFsNNW-23">
          <mxGeometry relative="1" as="geometry">
            <mxPoint x="1260" y="340" as="targetPoint" />
            <Array as="points">
              <mxPoint x="1435" y="640" />
              <mxPoint x="1220" y="640" />
            </Array>
          </mxGeometry>
        </mxCell>
        <mxCell id="bhM9FhKEBRI8hsWFsNNW-102" value="Опубликовать" style="edgeLabel;html=1;align=center;verticalAlign=middle;resizable=0;points=[];" vertex="1" connectable="0" parent="bhM9FhKEBRI8hsWFsNNW-98">
          <mxGeometry x="-0.4951" y="4" relative="1" as="geometry">
            <mxPoint as="offset" />
          </mxGeometry>
        </mxCell>
        <mxCell id="bhM9FhKEBRI8hsWFsNNW-54" value="&lt;pre style=&quot;box-sizing: border-box; border: none; margin-top: var(--spacing-sm); color: rgb(31, 41, 55); background: var(--code-background-fill); font-family: var(--font-mono); font-size: var(--text-sm); text-align: left; word-break: normal; overflow-wrap: normal; line-height: 1.5; tab-size: 2; hyphens: none; overflow: auto; position: relative; box-shadow: none; padding: var(--spacing-lg) var(--spacing-xl); text-shadow: none; border-radius: var(--radius-sm); margin-bottom: 0px !important;&quot;&gt;&lt;code style=&quot;box-sizing: border-box; border-width: 0px; border-style: solid; color: var(--body-text-color); background: none; font-family: var(--font-mono); font-size: var(--text-sm); word-spacing: normal; word-break: normal; overflow-wrap: normal; line-height: 1.5; tab-size: 2; hyphens: none; margin-bottom: 0px !important;&quot; class=&quot;language-mermaid&quot;&gt;ОжиданиеМодерации&lt;/code&gt;&lt;/pre&gt;" style="whiteSpace=wrap;html=1;fontFamily=Verdana;fillColor=#ffffc0;strokeColor=#ff0000;fontColor=#000000;rounded=1;arcSize=24;shadow=0;comic=0;labelBackgroundColor=none;" vertex="1" parent="1">
          <mxGeometry x="1340" y="560" width="190" height="60" as="geometry" />
        </mxCell>
        <mxCell id="bhM9FhKEBRI8hsWFsNNW-57" value="ПросмотрСтатистики" style="whiteSpace=wrap;html=1;fontFamily=Verdana;fillColor=#ffffc0;strokeColor=#ff0000;fontColor=#000000;rounded=1;arcSize=24;shadow=0;comic=0;labelBackgroundColor=none;" vertex="1" parent="1">
          <mxGeometry x="1890" y="400" width="160" height="60" as="geometry" />
        </mxCell>
        <mxCell id="bhM9FhKEBRI8hsWFsNNW-59" value="СравнениеОбъявлений" style="whiteSpace=wrap;html=1;fontFamily=Verdana;fillColor=#ffffc0;strokeColor=#ff0000;fontColor=#000000;rounded=1;arcSize=24;shadow=0;comic=0;labelBackgroundColor=none;" vertex="1" parent="1">
          <mxGeometry x="1890" y="480" width="160" height="60" as="geometry" />
        </mxCell>
        <mxCell id="bhM9FhKEBRI8hsWFsNNW-115" style="edgeStyle=orthogonalEdgeStyle;rounded=0;orthogonalLoop=1;jettySize=auto;html=1;exitX=0;exitY=0.5;exitDx=0;exitDy=0;entryX=1;entryY=0.5;entryDx=0;entryDy=0;" edge="1" parent="1" source="bhM9FhKEBRI8hsWFsNNW-60" target="bhM9FhKEBRI8hsWFsNNW-48">
          <mxGeometry relative="1" as="geometry">
            <Array as="points">
              <mxPoint x="1890" y="580" />
              <mxPoint x="1840" y="580" />
              <mxPoint x="1840" y="550" />
              <mxPoint x="1670" y="550" />
              <mxPoint x="1670" y="400" />
            </Array>
          </mxGeometry>
        </mxCell>
        <mxCell id="bhM9FhKEBRI8hsWFsNNW-60" value="УлучшениеОбъявлений" style="whiteSpace=wrap;html=1;fontFamily=Verdana;fillColor=#ffffc0;strokeColor=#ff0000;fontColor=#000000;rounded=1;arcSize=24;shadow=0;comic=0;labelBackgroundColor=none;" vertex="1" parent="1">
          <mxGeometry x="1890" y="560" width="160" height="60" as="geometry" />
        </mxCell>
        <mxCell id="bhM9FhKEBRI8hsWFsNNW-61" value="СкачиваниеОтчета" style="whiteSpace=wrap;html=1;fontFamily=Verdana;fillColor=#ffffc0;strokeColor=#ff0000;fontColor=#000000;rounded=1;arcSize=24;shadow=0;comic=0;labelBackgroundColor=none;" vertex="1" parent="1">
          <mxGeometry x="1890" y="640" width="160" height="60" as="geometry" />
        </mxCell>
        <mxCell id="bhM9FhKEBRI8hsWFsNNW-65" value="Принято" style="whiteSpace=wrap;html=1;fontFamily=Verdana;fillColor=#ffffc0;strokeColor=#ff0000;fontColor=#000000;rounded=1;arcSize=24;shadow=0;comic=0;labelBackgroundColor=none;" vertex="1" parent="1">
          <mxGeometry x="1615" y="560" width="120" height="60" as="geometry" />
        </mxCell>
        <mxCell id="bhM9FhKEBRI8hsWFsNNW-68" value="&lt;pre style=&quot;box-sizing: border-box; border: none; margin-top: var(--spacing-sm); color: rgb(31, 41, 55); background: var(--code-background-fill); font-family: var(--font-mono); font-size: var(--text-sm); text-align: left; word-break: normal; overflow-wrap: normal; line-height: 1.5; tab-size: 2; hyphens: none; overflow: auto; position: relative; box-shadow: none; padding: var(--spacing-lg) var(--spacing-xl); text-shadow: none; border-radius: var(--radius-sm); margin-bottom: 0px !important;&quot;&gt;&lt;code style=&quot;box-sizing: border-box; border-width: 0px; border-style: solid; color: var(--body-text-color); background: none; font-family: var(--font-mono); font-size: var(--text-sm); word-spacing: normal; word-break: normal; overflow-wrap: normal; line-height: 1.5; tab-size: 2; hyphens: none; margin-bottom: 0px !important;&quot; class=&quot;language-mermaid&quot;&gt;Отклонено&lt;/code&gt;&lt;/pre&gt;" style="whiteSpace=wrap;html=1;fontFamily=Verdana;fillColor=#ffffc0;strokeColor=#ff0000;fontColor=#000000;rounded=1;arcSize=24;shadow=0;comic=0;labelBackgroundColor=none;" vertex="1" parent="1">
          <mxGeometry x="1615" y="660" width="190" height="60" as="geometry" />
        </mxCell>
        <mxCell id="bhM9FhKEBRI8hsWFsNNW-81" style="edgeStyle=orthogonalEdgeStyle;rounded=0;orthogonalLoop=1;jettySize=auto;html=1;exitX=0;exitY=0.5;exitDx=0;exitDy=0;entryX=0.195;entryY=0.933;entryDx=0;entryDy=0;entryPerimeter=0;" edge="1" parent="1" source="bhM9FhKEBRI8hsWFsNNW-37" target="bhM9FhKEBRI8hsWFsNNW-19">
          <mxGeometry relative="1" as="geometry">
            <Array as="points">
              <mxPoint x="870" y="410" />
              <mxPoint x="827" y="410" />
            </Array>
          </mxGeometry>
        </mxCell>
        <mxCell id="bhM9FhKEBRI8hsWFsNNW-86" value="Сохранить" style="edgeLabel;html=1;align=center;verticalAlign=middle;resizable=0;points=[];" vertex="1" connectable="0" parent="bhM9FhKEBRI8hsWFsNNW-81">
          <mxGeometry x="0.6423" y="2" relative="1" as="geometry">
            <mxPoint x="35" y="4" as="offset" />
          </mxGeometry>
        </mxCell>
        <mxCell id="bhM9FhKEBRI8hsWFsNNW-83" style="edgeStyle=orthogonalEdgeStyle;rounded=0;orthogonalLoop=1;jettySize=auto;html=1;entryX=0.853;entryY=0.983;entryDx=0;entryDy=0;entryPerimeter=0;" edge="1" parent="1" source="bhM9FhKEBRI8hsWFsNNW-41" target="bhM9FhKEBRI8hsWFsNNW-19">
          <mxGeometry relative="1" as="geometry">
            <Array as="points">
              <mxPoint x="1130" y="600" />
              <mxPoint x="1130" y="380" />
              <mxPoint x="952" y="380" />
            </Array>
          </mxGeometry>
        </mxCell>
        <mxCell id="bhM9FhKEBRI8hsWFsNNW-88" value="Сохранить" style="edgeLabel;html=1;align=center;verticalAlign=middle;resizable=0;points=[];" vertex="1" connectable="0" parent="bhM9FhKEBRI8hsWFsNNW-83">
          <mxGeometry x="0.3417" relative="1" as="geometry">
            <mxPoint as="offset" />
          </mxGeometry>
        </mxCell>
        <mxCell id="bhM9FhKEBRI8hsWFsNNW-85" style="edgeStyle=orthogonalEdgeStyle;rounded=0;orthogonalLoop=1;jettySize=auto;html=1;entryX=0.926;entryY=0.983;entryDx=0;entryDy=0;entryPerimeter=0;" edge="1" parent="1" source="bhM9FhKEBRI8hsWFsNNW-42" target="bhM9FhKEBRI8hsWFsNNW-19">
          <mxGeometry relative="1" as="geometry">
            <Array as="points">
              <mxPoint x="1150" y="680" />
              <mxPoint x="1150" y="370" />
              <mxPoint x="966" y="370" />
            </Array>
          </mxGeometry>
        </mxCell>
        <mxCell id="bhM9FhKEBRI8hsWFsNNW-87" value="Сохранить" style="edgeLabel;html=1;align=center;verticalAlign=middle;resizable=0;points=[];" vertex="1" connectable="0" parent="bhM9FhKEBRI8hsWFsNNW-85">
          <mxGeometry x="0.7318" y="2" relative="1" as="geometry">
            <mxPoint as="offset" />
          </mxGeometry>
        </mxCell>
        <mxCell id="bhM9FhKEBRI8hsWFsNNW-96" style="edgeStyle=orthogonalEdgeStyle;rounded=0;orthogonalLoop=1;jettySize=auto;html=1;entryX=0.684;entryY=1;entryDx=0;entryDy=0;entryPerimeter=0;" edge="1" parent="1" source="bhM9FhKEBRI8hsWFsNNW-48" target="bhM9FhKEBRI8hsWFsNNW-23">
          <mxGeometry relative="1" as="geometry" />
        </mxCell>
        <mxCell id="bhM9FhKEBRI8hsWFsNNW-99" value="Сохранить" style="edgeLabel;html=1;align=center;verticalAlign=middle;resizable=0;points=[];" vertex="1" connectable="0" parent="bhM9FhKEBRI8hsWFsNNW-96">
          <mxGeometry x="0.3481" y="-3" relative="1" as="geometry">
            <mxPoint x="26" y="3" as="offset" />
          </mxGeometry>
        </mxCell>
        <mxCell id="bhM9FhKEBRI8hsWFsNNW-116" style="edgeStyle=orthogonalEdgeStyle;rounded=0;orthogonalLoop=1;jettySize=auto;html=1;exitX=0;exitY=0.5;exitDx=0;exitDy=0;entryX=0.316;entryY=1;entryDx=0;entryDy=0;entryPerimeter=0;" edge="1" parent="1" source="bhM9FhKEBRI8hsWFsNNW-53" target="bhM9FhKEBRI8hsWFsNNW-23">
          <mxGeometry relative="1" as="geometry">
            <Array as="points">
              <mxPoint x="1340" y="480" />
              <mxPoint x="1270" y="480" />
            </Array>
          </mxGeometry>
        </mxCell>
        <mxCell id="bhM9FhKEBRI8hsWFsNNW-117" value="Подтвердить" style="edgeLabel;html=1;align=center;verticalAlign=middle;resizable=0;points=[];" vertex="1" connectable="0" parent="bhM9FhKEBRI8hsWFsNNW-116">
          <mxGeometry x="-0.1826" relative="1" as="geometry">
            <mxPoint x="-10" y="-56" as="offset" />
          </mxGeometry>
        </mxCell>
      </root>
    </mxGraphModel>
  </diagram>
</mxfile>
